<?xml version="1.0" standalone="no"?>
<!DOCTYPE svg PUBLIC "-//W3C//DTD SVG 20010904//EN"
 "http://www.w3.org/TR/2001/REC-SVG-20010904/DTD/svg10.dtd">
<svg version="1.0" xmlns="http://www.w3.org/2000/svg"
 width="370.000000pt" height="370.000000pt" viewBox="0 0 370.000000 370.000000"
 preserveAspectRatio="xMidYMid meet">
<metadata>
Created by potrace 1.14, written by Peter Selinger 2001-2017
</metadata>
<g transform="translate(0.000000,370.000000) scale(0.100000,-0.100000)"
fill="#000000" stroke="none">
<path d="M1670 2625 c-164 -37 -338 -158 -435 -306 -107 -160 -149 -303 -149
-514 -1 -154 10 -218 56 -337 102 -267 317 -430 604 -457 158 -14 279 2 510
69 55 16 133 33 172 36 l72 7 0 206 c0 113 5 224 10 246 11 49 46 81 99 90
l41 7 0 74 0 74 -295 0 -295 0 0 -85 0 -85 81 0 80 0 -7 -202 c-5 -154 -10
-206 -20 -214 -29 -24 -179 -48 -289 -48 -92 0 -120 4 -170 24 -122 48 -227
189 -277 375 -31 117 -31 385 0 498 47 171 144 307 260 364 52 26 66 28 172
28 109 0 118 -2 182 -33 109 -53 191 -158 220 -283 l11 -49 74 0 73 0 0 260 0
260 -86 0 -86 0 4 -45 c2 -25 3 -45 2 -45 -1 0 -27 11 -57 25 -31 13 -93 34
-139 46 -108 28 -322 35 -418 14z"/>
</g>
</svg>
